<!-- <svg xmlns="http://www.w3.org/2000/svg" xmlns:xlink="http://www.w3.org/1999/xlink" width="1080" zoomAndPan="magnify" viewBox="0 0 810 809.999993" height="1080" preserveAspectRatio="xMidYMid meet" version="1.0"><defs><clipPath id="294abdd2b5"><path d="M 0 0 L 734.25 0 L 734.25 810 L 0 810 Z M 0 0 " clip-rule="nonzero"/></clipPath></defs><g clip-path="url(#294abdd2b5)"><path fill="#545540" d="M 227.601562 366.207031 C 193.21875 364.027344 164.871094 392.378906 167.046875 426.777344 C 168.839844 455.136719 191.847656 478.148438 220.199219 479.945312 C 254.582031 482.117188 282.929688 453.765625 280.753906 419.367188 C 278.964844 391.015625 255.957031 367.996094 227.601562 366.207031 Z M 734.242188 775.277344 L 729.320312 809.722656 C 713.335938 809.722656 699.804688 808.492188 683.820312 807.261719 C 594.035156 801.109375 546.070312 777.738281 491.957031 701.46875 C 446.457031 638.726562 402.171875 561.230469 362.824219 498.496094 C 351.433594 480.269531 341.878906 468.90625 328.6875 461.953125 C 320.742188 457.769531 318.511719 447.492188 324.148438 440.496094 C 326.8125 437.199219 329.378906 433.84375 331.84375 430.441406 C 343.539062 414.335938 359.675781 402.011719 378.003906 394.238281 C 390.210938 389.0625 401.003906 382.46875 410.789062 374.246094 C 458.746094 338.566406 478.425781 289.359375 478.425781 222.9375 C 478.425781 91.3125 391.109375 43.328125 296.40625 43.328125 C 260.742188 43.328125 26.925781 42.683594 0.0117188 41.902344 L 0.0117188 0.277344 L 313.625 0.277344 C 403.40625 0.277344 463.667969 11.34375 510.402344 42.097656 C 560.828125 74.085938 594.035156 129.441406 594.035156 204.480469 C 594.035156 310.273438 526.394531 376.707031 435.382812 416.074219 C 457.519531 454.207031 510.402344 536.628906 547.300781 591.984375 C 592.804688 657.1875 616.171875 687.941406 644.460938 718.6875 C 677.667969 754.367188 705.957031 767.902344 734.242188 775.277344 " fill-opacity="1" fill-rule="nonzero"/></g></svg> -->

<!-- <svg xmlns="http://www.w3.org/2000/svg" xmlns:xlink="http://www.w3.org/1999/xlink" width="1080" zoomAndPan="magnify" viewBox="0 0 810 809.999993" height="1080" preserveAspectRatio="xMidYMid meet" version="1.0"><path fill="#545540" d="M 405 0 C 259.609375 0 131.945312 77.015625 60.488281 192.363281 L 85.550781 192.363281 C 154.4375 89.195312 271.894531 21.109375 405 21.109375 C 616.660156 21.109375 788.890625 193.289062 788.890625 405 C 788.890625 561.285156 694.976562 696.085938 560.621094 755.859375 L 308.074219 482.699219 C 372.652344 482.699219 404.28125 440.480469 403.90625 392.375 C 403.476562 346.375 370.976562 300.375 306.824219 300.375 L 176.8125 300.375 L 176.8125 595.757812 L 199.601562 595.757812 L 199.601562 321.46875 L 306.824219 321.46875 C 355.800781 321.46875 379.390625 357.324219 378.964844 391.929688 C 378.585938 433.292969 355.800781 462.394531 304.292969 462.394531 L 259.578125 462.394531 L 279.453125 483.929688 L 280.222656 483.929688 L 539.046875 764.71875 C 538.792969 764.804688 538.535156 764.890625 538.296875 764.976562 L 553.726562 781.6875 C 553.964844 781.585938 554.222656 781.515625 554.460938 781.414062 C 561.644531 778.539062 568.726562 775.480469 575.707031 772.175781 C 713.945312 707.703125 809.964844 567.359375 809.964844 404.984375 C 809.964844 181.65625 628.308594 0 405 0 Z M 405 0 " fill-opacity="1" fill-rule="nonzero"/><path fill="#545540" d="M 405 788.890625 C 193.289062 788.890625 21.109375 616.660156 21.109375 405 C 21.109375 344.082031 35.445312 286.503906 60.796875 235.300781 L 596.851562 235.300781 L 409.039062 499.90625 L 409.039062 509.605469 L 704.929688 509.605469 L 704.929688 487.230469 L 442.804688 487.230469 L 633.132812 222.214844 L 633.132812 214.191406 L 72.085938 214.191406 C 72.222656 213.953125 72.359375 213.695312 72.496094 213.457031 L 48.257812 213.457031 C 17.5 270.523438 0 335.753906 0 405 C 0 628.308594 181.65625 810 405 810 C 449.410156 810 492.140625 802.730469 532.152344 789.453125 L 516.332031 772.3125 C 481.074219 783.058594 443.695312 788.890625 405 788.890625 Z M 405 788.890625 " fill-opacity="1" fill-rule="nonzero"/></svg> -->

<svg xmlns="http://www.w3.org/2000/svg" xmlns:xlink="http://www.w3.org/1999/xlink" width="1080" zoomAndPan="magnify" viewBox="0 0 810 809.999993" height="1080" preserveAspectRatio="xMidYMid meet" version="1.0"><defs><clipPath id="a31907699c"><path d="M 0 0 L 662 0 L 662 714.75 L 0 714.75 Z M 0 0 " clip-rule="nonzero"/></clipPath></defs><g clip-path="url(#a31907699c)"><path fill="#545540" d="M 623.285156 632.730469 L 661.035156 632.730469 L 661.035156 714.339844 L 486.601562 714.339844 L 486.601562 632.730469 L 524.351562 632.730469 L 487.632812 565.40625 L 358.082031 565.40625 L 358.082031 483.796875 L 442.75 483.796875 L 395.832031 398.121094 L 339.734375 398.121094 L 339.734375 632.730469 L 377.484375 632.730469 L 377.484375 714.339844 L 209.117188 714.339844 L 209.117188 632.730469 L 247.882812 632.730469 L 247.882812 565.40625 L 0 565.40625 L 0 504.210938 L 247.882812 388.957031 L 247.882812 230.855469 L 102.015625 230.855469 L 102.015625 261.449219 L 17.332031 261.449219 L 17.332031 149.246094 L 247.882812 149.246094 L 247.882812 81.917969 L 209.117188 81.917969 L 209.117188 0.328125 L 435.582031 0.328125 C 460.066406 0.328125 483.183594 5.09375 504.949219 14.609375 C 526.699219 24.140625 545.75 37.054688 562.082031 53.371094 C 578.398438 69.6875 591.316406 88.917969 600.851562 111 C 610.367188 133.113281 615.132812 156.394531 615.132812 180.875 L 615.132812 217.589844 C 615.132812 237.988281 612.066406 257.203125 605.949219 275.214844 C 599.832031 293.246094 591.167969 309.894531 579.933594 325.195312 C 568.714844 340.492188 555.617188 353.59375 540.667969 364.457031 C 525.699219 375.339844 509.050781 383.839844 490.683594 389.957031 Z M 224.433594 483.8125 L 247.898438 483.8125 L 247.898438 472.597656 Z M 339.699219 81.933594 L 339.699219 316.546875 L 425.382812 316.546875 C 436.933594 316.546875 447.984375 314.347656 458.535156 309.914062 C 469.066406 305.496094 478.433594 299.378906 486.582031 291.546875 C 494.75 283.730469 501.382812 274.714844 506.484375 264.515625 C 511.582031 254.320312 514.800781 243.101562 516.167969 230.855469 L 358.050781 230.855469 L 358.050781 149.246094 L 513.101562 149.246094 C 506.984375 129.53125 495.917969 113.382812 479.949219 100.800781 C 463.964844 88.21875 445.785156 81.933594 425.382812 81.933594 Z M 339.699219 81.933594 " fill-opacity="1" fill-rule="nonzero"/></g><path fill="#46473d" d="M 726.433594 483.980469 L 726.433594 453.367188 L 810.082031 453.367188 L 810.082031 565.570312 L 610.132812 565.570312 L 565.25 483.980469 Z M 726.433594 483.980469 " fill-opacity="1" fill-rule="nonzero"/><path fill="#63644e" d="M 624.417969 302.414062 C 629.167969 290.863281 632.917969 279.132812 635.632812 267.21875 C 638.351562 255.335938 639.714844 243.253906 639.714844 231.003906 L 639.714844 181.027344 C 639.714844 170.160156 638.699219 159.609375 636.648438 149.414062 L 808.035156 149.414062 L 808.035156 217.753906 Z M 624.417969 302.414062 " fill-opacity="1" fill-rule="nonzero"/></svg>