<svg xmlns="http://www.w3.org/2000/svg" xmlns:xlink="http://www.w3.org/1999/xlink" width="1080" zoomAndPan="magnify" viewBox="0 0 810 809.999993" height="1080" preserveAspectRatio="xMidYMid meet" version="1.0"><defs><clipPath id="a31907699c"><path d="M 0 0 L 662 0 L 662 714.75 L 0 714.75 Z M 0 0 " clip-rule="nonzero"/></clipPath></defs><g clip-path="url(#a31907699c)"><path fill="#545540" d="M 623.285156 632.730469 L 661.035156 632.730469 L 661.035156 714.339844 L 486.601562 714.339844 L 486.601562 632.730469 L 524.351562 632.730469 L 487.632812 565.40625 L 358.082031 565.40625 L 358.082031 483.796875 L 442.75 483.796875 L 395.832031 398.121094 L 339.734375 398.121094 L 339.734375 632.730469 L 377.484375 632.730469 L 377.484375 714.339844 L 209.117188 714.339844 L 209.117188 632.730469 L 247.882812 632.730469 L 247.882812 565.40625 L 0 565.40625 L 0 504.210938 L 247.882812 388.957031 L 247.882812 230.855469 L 102.015625 230.855469 L 102.015625 261.449219 L 17.332031 261.449219 L 17.332031 149.246094 L 247.882812 149.246094 L 247.882812 81.917969 L 209.117188 81.917969 L 209.117188 0.328125 L 435.582031 0.328125 C 460.066406 0.328125 483.183594 5.09375 504.949219 14.609375 C 526.699219 24.140625 545.75 37.054688 562.082031 53.371094 C 578.398438 69.6875 591.316406 88.917969 600.851562 111 C 610.367188 133.113281 615.132812 156.394531 615.132812 180.875 L 615.132812 217.589844 C 615.132812 237.988281 612.066406 257.203125 605.949219 275.214844 C 599.832031 293.246094 591.167969 309.894531 579.933594 325.195312 C 568.714844 340.492188 555.617188 353.59375 540.667969 364.457031 C 525.699219 375.339844 509.050781 383.839844 490.683594 389.957031 Z M 224.433594 483.8125 L 247.898438 483.8125 L 247.898438 472.597656 Z M 339.699219 81.933594 L 339.699219 316.546875 L 425.382812 316.546875 C 436.933594 316.546875 447.984375 314.347656 458.535156 309.914062 C 469.066406 305.496094 478.433594 299.378906 486.582031 291.546875 C 494.75 283.730469 501.382812 274.714844 506.484375 264.515625 C 511.582031 254.320312 514.800781 243.101562 516.167969 230.855469 L 358.050781 230.855469 L 358.050781 149.246094 L 513.101562 149.246094 C 506.984375 129.53125 495.917969 113.382812 479.949219 100.800781 C 463.964844 88.21875 445.785156 81.933594 425.382812 81.933594 Z M 339.699219 81.933594 " fill-opacity="1" fill-rule="nonzero"/></g><path fill="#46473d" d="M 726.433594 483.980469 L 726.433594 453.367188 L 810.082031 453.367188 L 810.082031 565.570312 L 610.132812 565.570312 L 565.25 483.980469 Z M 726.433594 483.980469 " fill-opacity="1" fill-rule="nonzero"/><path fill="#63644e" d="M 624.417969 302.414062 C 629.167969 290.863281 632.917969 279.132812 635.632812 267.21875 C 638.351562 255.335938 639.714844 243.253906 639.714844 231.003906 L 639.714844 181.027344 C 639.714844 170.160156 638.699219 159.609375 636.648438 149.414062 L 808.035156 149.414062 L 808.035156 217.753906 Z M 624.417969 302.414062 " fill-opacity="1" fill-rule="nonzero"/></svg>